<svg id="Layer_1" data-name="Layer 1" xmlns="http://www.w3.org/2000/svg" viewBox="0 0 512 512"><defs><style>.cls-1{fill:#221f20;}</style></defs><circle class="cls-1" cx="227.22" cy="186.96" r="25.34"/><path class="cls-1" d="M352.85,372.35l-39.38-9.3,7.67-25.15-30.06-42.3c-13.21,8.07-27.56,12.09-43.85,12.32h-1.07c-46.82,0-86.73-38.26-89.22-85.76-.15-2.86.45-13,.45-13A89.07,89.07,0,0,1,335,218.82c0,2.47-.81,12-.8,12a88.21,88.21,0,0,1-11.58,33.29l45.07,59.72c8-6.54,18.35-22,19.87-24.65a162.32,162.32,0,0,0-31.3-198.47A160.46,160.46,0,0,0,233.48,57.81C154.24,63.74,90,128,84,207.24A161,161,0,0,0,126.92,330c30.67,33.06,74.06,51.38,119,52,8.12.11,11.9.31,20.6.48l46.76,66.84a12.36,12.36,0,0,0,10.15,5.31c.64,0,67.92-12.18,67.92-12.18l-1.1-15.05L341.73,409Z"/></svg>